<?xml version="1.0" encoding="UTF-8"?>
<svg xmlns="http://www.w3.org/2000/svg" xmlns:xlink="http://www.w3.org/1999/xlink" width="375pt" height="374.999991pt" viewBox="0 0 375 374.999991" version="1.2">
<defs>
<filter id="alpha" filterUnits="objectBoundingBox" x="0%" y="0%" width="100%" height="100%">
  <feColorMatrix type="matrix" in="SourceGraphic" values="0 0 0 0 1 0 0 0 0 1 0 0 0 0 1 0 0 0 1 0"/>
</filter>
<mask id="mask0">
  <g filter="url(#alpha)">
<rect x="0" y="0" width="375" height="374.999991" style="fill:rgb(0%,0%,0%);fill-opacity:0.1176;stroke:none;"/>
  </g>
</mask>
<clipPath id="clip2">
  <path d="M 265 0.207031 L 343 0.207031 L 343 53 L 265 53 Z M 265 0.207031 "/>
</clipPath>
<clipPath id="clip3">
  <path d="M 275.484375 345.386719 L 334.25 345.386719 L 334.25 368.445312 L 275.484375 368.445312 Z M 275.484375 345.386719 "/>
</clipPath>
<clipPath id="clip4">
  <path d="M 23.097656 322.496094 L 89.90625 322.496094 L 89.90625 368.445312 L 23.097656 368.445312 Z M 23.097656 322.496094 "/>
</clipPath>
<clipPath id="clip5">
  <path d="M 34 0.207031 L 87 0.207031 L 87 21 L 34 21 Z M 34 0.207031 "/>
</clipPath>
<clipPath id="clip6">
  <path d="M 354.664062 114.03125 L 368.445312 114.03125 L 368.445312 157.332031 L 354.664062 157.332031 Z M 354.664062 114.03125 "/>
</clipPath>
<clipPath id="clip7">
  <path d="M 0.207031 111 L 35 111 L 35 160 L 0.207031 160 Z M 0.207031 111 "/>
</clipPath>
<clipPath id="clip1">
  <rect x="0" y="0" width="369" height="369"/>
</clipPath>
<g id="surface5" clip-path="url(#clip1)">
<path style=" stroke:none;fill-rule:nonzero;fill:rgb(100%,8.628845%,8.628845%);fill-opacity:1;" d="M 103.578125 98.433594 L 82.226562 56.214844 C 83.910156 52.671875 94.507812 34.070312 122.46875 31.832031 L 147.804688 79.203125 C 140.148438 79.453125 113.777344 81.53125 103.578125 98.433594 Z M 96.664062 100.710938 C 77.933594 100.710938 62 119.246094 57.480469 125.042969 L 34.757812 74.105469 C 47.445312 59.464844 59.910156 57.917969 70.085938 57.917969 C 73.910156 57.917969 76.710938 58.378906 77.84375 58.601562 L 99.191406 100.828125 C 98.355469 100.75 97.515625 100.710938 96.664062 100.710938 Z M 123.992188 29.160156 L 123.148438 29.214844 C 90.394531 31.371094 79.730469 55.496094 79.625 55.765625 L 79.402344 56.308594 L 79.421875 56.339844 L 79.03125 56.238281 C 78.882812 56.203125 75.449219 55.351562 70.085938 55.351562 C 61.191406 55.351562 46.40625 56.308594 32.246094 73.089844 L 31.703125 73.742188 L 57.074219 129.925781 L 58.304688 128.203125 C 58.488281 127.949219 76.273438 103.28125 96.664062 103.28125 C 98.191406 103.28125 99.722656 103.414062 101.207031 103.691406 L 103.753906 104.167969 L 103.636719 103.933594 L 104.6875 101.757812 C 114.097656 82.296875 145.96875 81.734375 149.574219 81.734375 L 151.980469 81.769531 L 123.992188 29.160156 "/>
<g clip-path="url(#clip2)" clip-rule="nonzero">
<path style=" stroke:none;fill-rule:nonzero;fill:rgb(100%,8.628845%,8.628845%);fill-opacity:1;" d="M 304.082031 9.320312 C 300.992188 9.320312 298.503906 11.828125 298.503906 14.90625 C 298.503906 17.984375 300.992188 20.488281 304.082031 20.488281 C 307.164062 20.488281 309.660156 17.984375 309.660156 14.90625 C 309.660156 11.828125 307.164062 9.320312 304.082031 9.320312 Z M 304.082031 9.320312 C 300.992188 9.320312 298.503906 11.828125 298.503906 14.90625 C 298.503906 17.984375 300.992188 20.488281 304.082031 20.488281 C 307.164062 20.488281 309.660156 17.984375 309.660156 14.90625 C 309.660156 11.828125 307.164062 9.320312 304.082031 9.320312 Z M 304.082031 9.320312 C 300.992188 9.320312 298.503906 11.828125 298.503906 14.90625 C 298.503906 17.984375 300.992188 20.488281 304.082031 20.488281 C 307.164062 20.488281 309.660156 17.984375 309.660156 14.90625 C 309.660156 11.828125 307.164062 9.320312 304.082031 9.320312 Z M 311.386719 37.90625 C 309.214844 40.082031 306.988281 41.972656 304.78125 43.566406 C 302.527344 42.128906 300.277344 40.382812 298.082031 38.34375 C 296.523438 38.234375 295.011719 38.0625 293.527344 37.855469 C 296.324219 40.761719 299.273438 43.265625 302.238281 45.273438 C 295.75 49.246094 289.574219 50.351562 285.246094 47.621094 C 281.410156 45.203125 279.671875 40.171875 279.875 33.765625 L 279.957031 32.746094 C 283.921875 34.429688 288.503906 35.699219 293.527344 36.421875 C 295.011719 36.636719 296.523438 36.804688 298.082031 36.921875 C 299.875 37.058594 301.71875 37.136719 303.59375 37.136719 C 306.746094 37.136719 309.796875 36.914062 312.710938 36.539062 C 312.269531 37.003906 311.824219 37.460938 311.386719 37.90625 Z M 323.699219 26.960938 C 324.835938 25.164062 325.855469 23.359375 326.808594 21.558594 C 327.539062 24.144531 328.039062 26.691406 328.253906 29.128906 C 325.835938 30.328125 323.089844 31.355469 320.097656 32.164062 C 321.335938 30.511719 322.546875 28.789062 323.699219 26.960938 Z M 332.976562 5.34375 C 336.925781 8.3125 339.261719 11.914062 339.261719 15.792969 C 339.261719 20.292969 336.136719 24.425781 330.953125 27.636719 C 330.5625 24.480469 329.773438 21.191406 328.648438 17.859375 C 330.625 13.5625 332.074219 9.339844 332.976562 5.34375 Z M 316.039062 37.199219 C 316.441406 36.742188 316.84375 36.273438 317.246094 35.800781 C 321.351562 34.960938 325.105469 33.761719 328.394531 32.246094 C 329.375 31.789062 330.308594 31.3125 331.199219 30.808594 C 337.984375 26.988281 342.117188 21.703125 342.117188 15.792969 C 342.117188 10.605469 338.925781 5.921875 333.570312 2.261719 C 333.582031 2.195312 333.601562 2.132812 333.609375 2.0625 C 333.707031 1.4375 333.785156 0.820312 333.847656 0.207031 L 330.910156 0.207031 C 330.894531 0.332031 330.878906 0.453125 330.867188 0.582031 C 330.636719 0.453125 330.402344 0.328125 330.167969 0.207031 L 322.753906 0.207031 C 325.597656 1.148438 328.15625 2.292969 330.371094 3.589844 C 329.722656 6.890625 328.628906 10.394531 327.167969 13.980469 C 325.652344 10.371094 323.765625 6.757812 321.480469 3.253906 C 320.523438 1.773438 320.578125 1.785156 319.539062 0.417969 C 319.242188 0.34375 318.941406 0.277344 318.644531 0.207031 L 315.746094 0.207031 C 317.089844 1.824219 317.710938 2.703125 319.09375 4.816406 C 321.816406 9.003906 323.980469 13.347656 325.554688 17.621094 C 324.316406 20.222656 322.898438 22.835938 321.265625 25.429688 C 319.507812 28.21875 317.621094 30.796875 315.671875 33.167969 C 311.894531 33.875 307.839844 34.273438 303.59375 34.273438 C 300.585938 34.273438 297.660156 34.082031 294.871094 33.710938 C 293.355469 33.519531 290.453125 32.96875 290.453125 32.96875 C 286.699219 32.203125 283.273438 31.089844 280.269531 29.738281 C 280.65625 27.007812 281.347656 24.105469 282.34375 21.097656 C 283.308594 22.894531 284.421875 24.691406 285.710938 26.546875 C 287.636719 29.320312 287.898438 29.703125 289.570312 31.707031 C 290.996094 32 292.472656 32.257812 293.984375 32.449219 C 291.578125 29.851562 290.453125 28.761719 288.101562 24.988281 C 286.40625 22.273438 284.980469 19.695312 283.792969 17.183594 C 285.34375 13.355469 287.316406 9.4375 289.757812 5.566406 C 290.941406 3.6875 292.179688 1.902344 293.460938 0.207031 L 289.878906 0.207031 C 289.003906 1.4375 288.152344 2.707031 287.324219 4.019531 C 285.335938 7.175781 283.636719 10.339844 282.21875 13.472656 C 281.007812 10.285156 280.167969 7.121094 279.722656 3.777344 C 278.765625 4.242188 277.871094 4.730469 277.023438 5.25 C 277.703125 9.445312 278.816406 13.421875 280.566406 17.429688 C 279.117188 21.222656 278.09375 24.910156 277.527344 28.378906 C 271.574219 25.082031 267.929688 20.652344 267.929688 15.792969 C 267.929688 11.226562 271.140625 7.042969 276.449219 3.8125 C 277.296875 3.300781 278.199219 2.8125 279.140625 2.347656 C 280.773438 1.550781 282.554688 0.835938 284.453125 0.207031 L 277.023438 0.207031 C 276.695312 0.375 276.378906 0.550781 276.066406 0.726562 C 269.230469 4.558594 265.070312 9.851562 265.070312 15.792969 C 265.070312 22.027344 269.675781 27.550781 277.132812 31.421875 C 277.105469 31.707031 277.054688 32.011719 277.039062 32.289062 C 276.449219 40.453125 278.597656 47.011719 283.628906 50.191406 C 289.222656 53.722656 297.035156 52.234375 304.988281 46.960938 C 309.203125 49.363281 313.390625 50.699219 317.1875 50.699219 C 319.992188 50.699219 322.484375 50 324.609375 48.621094 C 329.191406 45.640625 331.472656 39.847656 331.199219 32.234375 C 330.308594 32.734375 329.375 33.222656 328.394531 33.667969 C 328.34375 39.578125 326.5 43.984375 323.050781 46.226562 C 321.402344 47.300781 319.433594 47.839844 317.195312 47.839844 C 314.195312 47.839844 310.90625 46.894531 307.542969 45.15625 C 310.421875 42.964844 313.285156 40.292969 316.039062 37.199219 Z M 304.082031 9.320312 C 300.992188 9.320312 298.503906 11.828125 298.503906 14.90625 C 298.503906 17.984375 300.992188 20.488281 304.082031 20.488281 C 307.164062 20.488281 309.660156 17.984375 309.660156 14.90625 C 309.660156 11.828125 307.164062 9.320312 304.082031 9.320312 Z M 304.082031 9.320312 C 300.992188 9.320312 298.503906 11.828125 298.503906 14.90625 C 298.503906 17.984375 300.992188 20.488281 304.082031 20.488281 C 307.164062 20.488281 309.660156 17.984375 309.660156 14.90625 C 309.660156 11.828125 307.164062 9.320312 304.082031 9.320312 Z M 304.082031 9.320312 C 300.992188 9.320312 298.503906 11.828125 298.503906 14.90625 C 298.503906 17.984375 300.992188 20.488281 304.082031 20.488281 C 307.164062 20.488281 309.660156 17.984375 309.660156 14.90625 C 309.660156 11.828125 307.164062 9.320312 304.082031 9.320312 Z M 304.082031 9.320312 C 300.992188 9.320312 298.503906 11.828125 298.503906 14.90625 C 298.503906 17.984375 300.992188 20.488281 304.082031 20.488281 C 307.164062 20.488281 309.660156 17.984375 309.660156 14.90625 C 309.660156 11.828125 307.164062 9.320312 304.082031 9.320312 "/>
</g>
<g clip-path="url(#clip3)" clip-rule="nonzero">
<path style=" stroke:none;fill-rule:nonzero;fill:rgb(100%,8.628845%,8.628845%);fill-opacity:1;" d="M 315.753906 368.445312 L 318.644531 368.445312 C 317.523438 368.191406 316.378906 367.976562 315.195312 367.785156 C 315.394531 368.019531 315.582031 368.242188 315.753906 368.445312 Z M 327.394531 349.035156 C 321.667969 345.421875 313.605469 347.074219 305.472656 352.640625 C 300.175781 348.546875 294.789062 345.917969 289.996094 345.917969 C 287.199219 345.917969 284.707031 346.609375 282.585938 347.988281 C 277.660156 351.199219 275.347656 359.058594 276.066406 367.523438 C 276.066406 367.523438 276.066406 367.53125 276.066406 367.535156 C 276.949219 367.035156 277.882812 366.566406 278.855469 366.121094 C 278.519531 359.347656 280.363281 352.84375 284.136719 350.390625 C 285.789062 349.308594 287.765625 348.773438 289.996094 348.773438 C 293.996094 348.773438 298.519531 351.007812 303.035156 354.421875 C 299.910156 356.859375 296.804688 359.859375 293.835938 363.355469 C 288.234375 364.140625 283.136719 365.578125 278.855469 367.546875 C 278.230469 367.832031 277.617188 368.128906 277.023438 368.445312 L 284.453125 368.445312 C 286.554688 367.753906 288.804688 367.171875 291.164062 366.714844 C 290.992188 366.949219 290.8125 367.167969 290.640625 367.402344 C 290.386719 367.746094 290.132812 368.09375 289.878906 368.445312 L 293.460938 368.445312 C 294.03125 367.691406 294.609375 366.957031 295.199219 366.238281 C 295.242188 366.183594 295.296875 366.113281 295.339844 366.058594 C 298.007812 365.734375 300.746094 365.539062 303.597656 365.539062 C 307.261719 365.539062 310.792969 365.828125 314.125 366.363281 C 315.613281 366.601562 317.058594 366.886719 318.457031 367.222656 C 319.953125 367.578125 321.394531 367.988281 322.773438 368.445312 L 330.179688 368.445312 C 326.089844 366.304688 321.117188 364.664062 315.570312 363.695312 C 314.125 363.441406 312.636719 363.230469 311.121094 363.070312 C 308.695312 362.816406 306.179688 362.679688 303.59375 362.679688 C 301.722656 362.679688 299.90625 362.769531 298.105469 362.902344 C 298.242188 362.761719 298.339844 362.65625 298.339844 362.65625 C 300.640625 360.207031 303.019531 358.078125 305.378906 356.296875 C 307.328125 357.921875 309.253906 359.734375 311.117188 361.640625 C 312.636719 361.800781 314.121094 362.011719 315.570312 362.265625 C 313.097656 359.464844 310.488281 356.847656 307.828125 354.558594 C 314.65625 350.097656 321.234375 348.742188 325.777344 351.59375 C 329.660156 354.050781 331.390625 359.191406 331.132812 365.707031 C 331.101562 366.597656 331.023438 367.511719 330.910156 368.445312 L 333.847656 368.445312 C 333.910156 367.964844 333.953125 367.492188 333.984375 367.023438 C 334.597656 358.808594 332.449219 352.222656 327.394531 349.035156 "/>
</g>
<g clip-path="url(#clip4)" clip-rule="nonzero">
<path style=" stroke:none;fill-rule:nonzero;fill:rgb(100%,8.628845%,8.628845%);fill-opacity:1;" d="M 80.78125 355.058594 L 89.417969 350.707031 L 87.257812 343.007812 L 77.433594 343.308594 C 76.183594 341.152344 74.636719 339.234375 72.855469 337.589844 L 75.6875 329 L 68.71875 325.082031 L 62.382812 331.8125 C 60.179688 331.21875 57.886719 330.925781 55.546875 330.972656 L 51.367188 322.675781 L 43.671875 324.835938 L 43.949219 334.101562 C 41.710938 335.339844 39.710938 336.902344 38 338.710938 L 29.273438 335.839844 L 25.359375 342.8125 L 32.097656 349.152344 C 31.4375 351.527344 31.132812 354.027344 31.214844 356.5625 L 23.484375 360.460938 L 25.644531 368.15625 L 34.375 367.890625 C 34.476562 368.074219 34.585938 368.261719 34.703125 368.445312 L 45.777344 368.445312 C 43.386719 366.410156 41.550781 363.667969 40.640625 360.417969 C 38.195312 351.714844 43.269531 342.675781 51.972656 340.230469 C 60.675781 337.789062 69.707031 342.867188 72.152344 351.570312 C 73.933594 357.910156 71.71875 364.4375 67.007812 368.445312 L 86.558594 368.445312 L 79.933594 362.21875 C 80.558594 359.910156 80.847656 357.503906 80.78125 355.058594 "/>
</g>
<path style=" stroke:none;fill-rule:nonzero;fill:rgb(100%,8.628845%,8.628845%);fill-opacity:1;" d="M 114.828125 354.609375 C 109.464844 357.472656 102.796875 355.445312 99.925781 350.085938 C 97.0625 344.722656 99.085938 338.046875 104.449219 335.183594 C 109.8125 332.320312 116.484375 334.34375 119.351562 339.707031 C 122.214844 345.070312 120.191406 351.746094 114.828125 354.609375 Z M 126.003906 345.574219 C 126.082031 343.96875 125.925781 342.347656 125.523438 340.753906 L 130.566406 336.636719 L 128.027344 331.894531 L 121.621094 333.511719 C 120.492188 332.277344 119.195312 331.246094 117.785156 330.421875 L 118.402344 324.371094 L 113.25 322.804688 L 110.070312 328.144531 C 108.539062 328.070312 106.984375 328.21875 105.457031 328.582031 L 101.503906 323.742188 L 96.765625 326.269531 L 98.292969 332.316406 C 97 333.457031 95.910156 334.777344 95.042969 336.210938 L 88.902344 335.585938 L 87.339844 340.734375 L 92.6875 343.917969 C 92.597656 345.582031 92.757812 347.265625 93.175781 348.921875 L 88.667969 352.597656 L 91.203125 357.339844 L 96.894531 355.902344 C 98.015625 357.15625 99.296875 358.214844 100.695312 359.0625 L 100.0625 365.277344 L 105.207031 366.84375 L 108.417969 361.457031 C 110.144531 361.554688 111.910156 361.382812 113.621094 360.925781 L 117.46875 365.636719 L 122.214844 363.101562 L 120.679688 357.039062 C 121.875 355.933594 122.886719 354.671875 123.691406 353.304688 L 129.816406 353.925781 L 131.382812 348.78125 L 126.003906 345.574219 "/>
<path style=" stroke:none;fill-rule:nonzero;fill:rgb(100%,8.628845%,8.628845%);fill-opacity:1;" d="M 92.8125 320.183594 C 88.699219 320.746094 84.902344 317.863281 84.335938 313.75 C 83.773438 309.636719 86.648438 305.839844 90.769531 305.273438 C 94.886719 304.710938 98.675781 307.585938 99.238281 311.707031 C 99.808594 315.824219 96.925781 319.621094 92.8125 320.183594 Z M 102.949219 313.84375 L 107.15625 312.402344 L 106.65625 308.765625 L 102.164062 308.28125 C 101.734375 307.21875 101.152344 306.246094 100.445312 305.386719 L 102.269531 301.65625 L 99.347656 299.429688 L 96.042969 302.09375 C 95.070312 301.6875 94.042969 301.417969 92.980469 301.285156 L 91.59375 297.246094 L 87.957031 297.742188 L 87.5 301.976562 C 86.402344 302.40625 85.394531 302.988281 84.5 303.703125 L 80.714844 301.847656 L 78.492188 304.773438 L 81.15625 308.082031 C 80.707031 309.128906 80.410156 310.242188 80.285156 311.40625 L 76.523438 312.691406 L 77.027344 316.332031 L 81.015625 316.753906 C 81.429688 317.824219 82.003906 318.808594 82.699219 319.6875 L 80.816406 323.515625 L 83.742188 325.738281 L 87.078125 323.050781 C 88.167969 323.523438 89.328125 323.824219 90.542969 323.945312 L 91.890625 327.878906 L 95.527344 327.378906 L 95.984375 323.128906 C 97.011719 322.707031 97.957031 322.136719 98.800781 321.449219 L 102.574219 323.300781 L 104.792969 320.375 L 102.113281 317.046875 C 102.542969 316.03125 102.828125 314.957031 102.949219 313.84375 "/>
<g clip-path="url(#clip5)" clip-rule="nonzero">
<path style=" stroke:none;fill-rule:nonzero;fill:rgb(100%,8.628845%,8.628845%);fill-opacity:1;" d="M 86.550781 0.207031 L 67.023438 0.207031 C 65.273438 1.707031 63.183594 2.855469 60.820312 3.519531 C 55.367188 5.046875 49.78125 3.621094 45.773438 0.207031 L 34.695312 0.207031 C 35.851562 2.164062 37.261719 3.925781 38.878906 5.460938 L 35.964844 14.28125 L 42.933594 18.195312 L 49.320312 11.410156 C 51.796875 12.105469 54.402344 12.414062 57.050781 12.300781 L 61.121094 20.367188 L 68.816406 18.210938 L 68.53125 8.925781 C 70.621094 7.699219 72.496094 6.191406 74.113281 4.464844 L 82.792969 7.328125 L 86.707031 0.355469 L 86.550781 0.207031 "/>
</g>
<g clip-path="url(#clip6)" clip-rule="nonzero">
<path style=" stroke:none;fill-rule:nonzero;fill:rgb(100%,8.628845%,8.628845%);fill-opacity:1;" d="M 365.960938 121.136719 C 366.75 120.445312 367.578125 119.832031 368.445312 119.296875 L 368.445312 114.253906 C 366.535156 115.160156 364.722656 116.34375 363.050781 117.804688 C 354.015625 125.691406 352.417969 138.929688 358.847656 148.671875 C 359.425781 149.554688 360.078125 150.410156 360.785156 151.226562 C 361.503906 152.042969 362.261719 152.804688 363.058594 153.496094 C 364.707031 154.945312 366.527344 156.125 368.445312 157.035156 L 368.445312 152.007812 C 366.867188 151.023438 365.410156 149.789062 364.121094 148.320312 C 357.117188 140.300781 357.941406 128.132812 365.960938 121.136719 "/>
</g>
<path style=" stroke:none;fill-rule:nonzero;fill:rgb(100%,8.628845%,8.628845%);fill-opacity:1;" d="M 347.46875 167.109375 L 343.257812 162.289062 L 360.613281 147.128906 L 364.828125 151.949219 L 347.46875 167.109375 "/>
<path style=" stroke:none;fill-rule:nonzero;fill:rgb(100%,8.628845%,8.628845%);fill-opacity:1;" d="M 327.742188 187.261719 C 325.613281 189.125 322.375 188.90625 320.515625 186.773438 C 318.65625 184.648438 318.875 181.410156 321.003906 179.550781 L 350.027344 153.824219 C 352.15625 151.964844 355.394531 152.183594 357.253906 154.3125 C 359.113281 156.441406 358.894531 159.679688 356.765625 161.539062 L 327.742188 187.261719 "/>
<g clip-path="url(#clip7)" clip-rule="nonzero">
<path style=" stroke:none;fill-rule:nonzero;fill:rgb(100%,8.628845%,8.628845%);fill-opacity:1;" d="M 28.230469 120.070312 C 21.085938 111.882812 9.554688 109.800781 0.207031 114.253906 L 0.207031 119.296875 C 8.089844 114.371094 18.601562 115.75 24.902344 122.976562 C 31.898438 130.984375 31.074219 143.152344 23.066406 150.15625 C 16.523438 155.863281 7.210938 156.367188 0.207031 152 L 0.207031 157.03125 C 8.472656 160.964844 18.636719 159.886719 25.972656 153.484375 C 35.828125 144.878906 36.835938 129.914062 28.230469 120.070312 "/>
</g>
<path style=" stroke:none;fill-rule:nonzero;fill:rgb(100%,8.628845%,8.628845%);fill-opacity:1;" d="M 201.0625 187.378906 C 197.886719 189.296875 192.777344 184.121094 189.554688 188.695312 C 180.578125 201.425781 169.472656 196.496094 164.964844 197.558594 C 158.226562 199.15625 154.617188 204.089844 152.359375 208.039062 C 151.089844 210.101562 148.566406 210.871094 145.183594 210.851562 L 141.59375 200.167969 L 148.902344 197.714844 C 150.039062 197.332031 150.6875 196.191406 150.351562 195.175781 C 150.007812 194.164062 148.800781 193.648438 147.664062 194.03125 L 140.351562 196.496094 L 138.785156 191.832031 L 155.75 186.121094 C 156.890625 185.738281 157.542969 184.597656 157.203125 183.585938 C 156.859375 182.570312 155.664062 182.054688 154.511719 182.441406 L 137.550781 188.144531 L 135.976562 183.488281 L 143.28125 181.023438 C 144.429688 180.640625 145.078125 179.507812 144.738281 178.496094 C 144.390625 177.472656 143.191406 176.960938 142.046875 177.347656 L 134.742188 179.804688 L 133.175781 175.140625 L 150.136719 169.4375 C 151.289062 169.054688 151.929688 167.914062 151.585938 166.902344 C 151.253906 165.886719 150.042969 165.367188 148.902344 165.75 L 131.9375 171.460938 L 130.367188 166.796875 L 137.671875 164.339844 C 138.816406 163.957031 139.46875 162.820312 139.125 161.796875 C 138.78125 160.78125 137.582031 160.277344 136.433594 160.660156 L 129.128906 163.117188 L 127.027344 156.875 L 126.421875 155.09375 C 125.117188 154.417969 123.484375 153.972656 123.484375 153.972656 L 119.363281 152.417969 L 191.273438 128.238281 C 192.089844 127.96875 192.949219 128.332031 193.199219 129.0625 C 193.441406 129.785156 192.976562 130.601562 192.160156 130.875 L 187.03125 132.75 C 187.03125 132.75 188.285156 136.410156 188.308594 136.472656 L 204.4375 184.414062 C 203.503906 185.488281 202.457031 186.515625 201.0625 187.378906 Z M 212.300781 194.125 L 192.445312 135.082031 C 192.425781 135.019531 192.394531 134.964844 192.363281 134.902344 L 193.394531 134.554688 C 196.496094 133.515625 198.257812 130.421875 197.332031 127.671875 C 196.402344 124.910156 193.136719 123.519531 190.03125 124.558594 L 189.398438 124.777344 L 184.742188 126.339844 L 112.816406 150.527344 C 111.964844 150.816406 111.351562 151.542969 111.28125 152.351562 C 111.210938 153.164062 111.691406 153.894531 112.492188 154.195312 L 122.34375 157.914062 C 122.492188 157.960938 122.648438 157.96875 122.800781 157.992188 L 142.808594 217.496094 C 144.542969 222.660156 150.6875 225.277344 156.496094 223.324219 L 204.921875 207.035156 C 210.730469 205.085938 214.039062 199.289062 212.300781 194.125 "/>
<path style=" stroke:none;fill-rule:nonzero;fill:rgb(100%,8.628845%,8.628845%);fill-opacity:1;" d="M 355.953125 250.199219 C 352.929688 251.285156 349.59375 249.714844 348.507812 246.691406 C 347.417969 243.664062 348.992188 240.332031 352.015625 239.246094 C 355.039062 238.15625 358.371094 239.726562 359.460938 242.753906 C 360.546875 245.777344 358.976562 249.109375 355.953125 250.199219 "/>
<path style=" stroke:none;fill-rule:nonzero;fill:rgb(100%,8.628845%,8.628845%);fill-opacity:1;" d="M 325.675781 261.078125 C 322.652344 262.167969 319.320312 260.597656 318.230469 257.574219 C 317.148438 254.546875 318.714844 251.214844 321.742188 250.128906 C 324.765625 249.042969 328.097656 250.613281 329.183594 253.636719 C 330.273438 256.660156 328.703125 259.992188 325.675781 261.078125 "/>
<path style=" stroke:none;fill-rule:nonzero;fill:rgb(100%,8.628845%,8.628845%);fill-opacity:1;" d="M 308.1875 212.421875 C 305.164062 213.507812 301.828125 211.9375 300.742188 208.910156 C 299.65625 205.886719 301.226562 202.554688 304.25 201.46875 C 307.277344 200.378906 310.609375 201.949219 311.695312 204.976562 C 312.78125 208 311.210938 211.332031 308.1875 212.421875 "/>
<path style=" stroke:none;fill-rule:nonzero;fill:rgb(100%,8.628845%,8.628845%);fill-opacity:1;" d="M 297.394531 246.136719 C 294.371094 247.222656 291.039062 245.652344 289.949219 242.625 C 288.863281 239.601562 290.433594 236.269531 293.460938 235.179688 C 296.480469 234.09375 299.816406 235.667969 300.902344 238.6875 C 301.992188 241.714844 300.417969 245.050781 297.394531 246.136719 "/>
<path style=" stroke:none;fill-rule:nonzero;fill:rgb(100%,8.628845%,8.628845%);fill-opacity:1;" d="M 280.96875 277.398438 C 277.945312 278.484375 274.609375 276.914062 273.523438 273.890625 C 272.433594 270.867188 274.007812 267.535156 277.03125 266.445312 C 280.054688 265.359375 283.390625 266.929688 284.476562 269.953125 C 285.5625 272.976562 283.992188 276.3125 280.96875 277.398438 "/>
<path style=" stroke:none;fill-rule:nonzero;fill:rgb(100%,8.628845%,8.628845%);fill-opacity:1;" d="M 263.855469 229.789062 C 260.832031 230.875 257.5 229.304688 256.410156 226.277344 C 255.324219 223.253906 256.894531 219.921875 259.917969 218.832031 C 262.941406 217.746094 266.277344 219.316406 267.363281 222.34375 C 268.453125 225.367188 266.882812 228.699219 263.855469 229.789062 "/>
<path style=" stroke:none;fill-rule:nonzero;fill:rgb(100%,8.628845%,8.628845%);fill-opacity:1;" d="M 321.519531 257.832031 L 320.605469 255.277344 L 353.527344 243.445312 L 354.445312 246 L 321.519531 257.832031 "/>
<path style=" stroke:none;fill-rule:nonzero;fill:rgb(100%,8.628845%,8.628845%);fill-opacity:1;" d="M 325.234375 257.335938 L 293.828125 241.925781 L 294.65625 240.242188 L 326.0625 255.652344 L 325.234375 257.335938 "/>
<path style=" stroke:none;fill-rule:nonzero;fill:rgb(100%,8.628845%,8.628845%);fill-opacity:1;" d="M 250.746094 261.894531 C 247.71875 262.980469 244.390625 261.410156 243.300781 258.386719 C 242.214844 255.363281 243.78125 252.03125 246.808594 250.941406 C 249.832031 249.851562 253.164062 251.421875 254.253906 254.449219 C 255.339844 257.472656 253.769531 260.804688 250.746094 261.894531 "/>
<path style=" stroke:none;fill-rule:nonzero;fill:rgb(100%,8.628845%,8.628845%);fill-opacity:1;" d="M 297.394531 320.308594 C 294.371094 321.394531 291.039062 319.824219 289.949219 316.800781 C 288.863281 313.777344 290.433594 310.441406 293.460938 309.355469 C 296.480469 308.265625 299.816406 309.835938 300.902344 312.863281 C 301.992188 315.886719 300.417969 319.21875 297.394531 320.308594 "/>
<path style=" stroke:none;fill-rule:nonzero;fill:rgb(100%,8.628845%,8.628845%);fill-opacity:1;" d="M 342.386719 305.453125 C 339.359375 306.539062 336.027344 304.96875 334.941406 301.941406 C 333.855469 298.921875 335.425781 295.585938 338.449219 294.5 C 341.472656 293.410156 344.808594 294.984375 345.894531 298.007812 C 346.980469 301.03125 345.410156 304.367188 342.386719 305.453125 "/>
<path style=" stroke:none;fill-rule:nonzero;fill:rgb(100%,8.628845%,8.628845%);fill-opacity:1;" d="M 279.390625 272.667969 L 247.984375 257.257812 L 248.8125 255.574219 L 280.21875 270.988281 L 279.390625 272.667969 "/>
<path style=" stroke:none;fill-rule:nonzero;fill:rgb(100%,8.628845%,8.628845%);fill-opacity:1;" d="M 310.796875 286.863281 L 279.390625 271.453125 L 280.214844 269.769531 L 311.625 285.183594 L 310.796875 286.863281 "/>
<path style=" stroke:none;fill-rule:nonzero;fill:rgb(100%,8.628845%,8.628845%);fill-opacity:1;" d="M 294.910156 242.097656 L 263.503906 226.6875 L 264.695312 224.25 L 296.101562 239.664062 L 294.910156 242.097656 "/>
<path style=" stroke:none;fill-rule:nonzero;fill:rgb(100%,8.628845%,8.628845%);fill-opacity:1;" d="M 295.421875 240.246094 L 292.875 239.308594 L 304.945312 206.476562 L 307.492188 207.414062 L 295.421875 240.246094 "/>
<path style=" stroke:none;fill-rule:nonzero;fill:rgb(100%,8.628845%,8.628845%);fill-opacity:1;" d="M 311.253906 288.234375 L 308.707031 287.300781 L 320.777344 254.464844 L 323.324219 255.402344 L 311.253906 288.234375 "/>
<path style=" stroke:none;fill-rule:nonzero;fill:rgb(100%,8.628845%,8.628845%);fill-opacity:1;" d="M 281.828125 271.910156 L 279.355469 270.789062 L 293.761719 238.914062 L 296.234375 240.03125 L 281.828125 271.910156 "/>
<path style=" stroke:none;fill-rule:nonzero;fill:rgb(100%,8.628845%,8.628845%);fill-opacity:1;" d="M 266.789062 308.574219 C 263.765625 309.660156 260.433594 308.089844 259.34375 305.066406 C 258.257812 302.039062 259.828125 298.707031 262.851562 297.621094 C 265.875 296.53125 269.210938 298.101562 270.296875 301.128906 C 271.382812 304.152344 269.816406 307.484375 266.789062 308.574219 "/>
<path style=" stroke:none;fill-rule:nonzero;fill:rgb(100%,8.628845%,8.628845%);fill-opacity:1;" d="M 267.648438 303.082031 L 265.175781 301.964844 L 279.585938 270.085938 L 282.054688 271.207031 L 267.648438 303.082031 "/>
<path style=" stroke:none;fill-rule:nonzero;fill:rgb(100%,8.628845%,8.628845%);fill-opacity:1;" d="M 312.164062 289.617188 C 309.140625 290.703125 305.808594 289.132812 304.71875 286.109375 C 303.632812 283.082031 305.203125 279.75 308.226562 278.664062 C 311.25 277.578125 314.585938 279.148438 315.671875 282.171875 C 316.761719 285.199219 315.1875 288.53125 312.164062 289.617188 "/>
<path style=" stroke:none;fill-rule:nonzero;fill:rgb(100%,8.628845%,8.628845%);fill-opacity:1;" d="M 340.003906 300.816406 L 308.597656 285.40625 L 309.425781 283.722656 L 340.828125 299.136719 L 340.003906 300.816406 "/>
<path style=" stroke:none;fill-rule:nonzero;fill:rgb(100%,8.628845%,8.628845%);fill-opacity:1;" d="M 296.59375 315.390625 L 294.125 314.273438 L 308.53125 282.394531 L 311.003906 283.511719 L 296.59375 315.390625 "/>
<path style=" stroke:none;fill-rule:nonzero;fill:rgb(100%,8.628845%,8.628845%);fill-opacity:1;" d="M 195.128906 48.445312 C 194.402344 53.671875 189.585938 57.324219 184.359375 56.601562 C 179.136719 55.875 175.488281 51.054688 176.207031 45.828125 C 176.929688 40.601562 181.753906 36.953125 186.972656 37.675781 C 192.203125 38.394531 195.851562 43.21875 195.128906 48.445312 Z M 204.566406 52.007812 L 205.207031 47.386719 L 199.878906 45.257812 C 199.71875 43.8125 199.332031 42.425781 198.765625 41.128906 L 202.277344 37.199219 L 199.464844 33.476562 L 194.511719 35.597656 C 193.46875 34.769531 192.308594 34.078125 191.046875 33.558594 L 190.75 28.144531 L 186.128906 27.5 L 184.117188 32.523438 C 182.625 32.664062 181.191406 33.039062 179.855469 33.605469 L 175.859375 30.03125 L 172.140625 32.847656 L 174.269531 37.8125 C 173.359375 38.933594 172.609375 40.195312 172.058594 41.574219 L 167.019531 41.851562 L 166.382812 46.472656 L 171.113281 48.367188 C 171.257812 49.820312 171.613281 51.21875 172.167969 52.523438 L 168.554688 56.5625 L 171.367188 60.289062 L 176.367188 58.140625 C 177.527344 59.09375 178.851562 59.867188 180.292969 60.414062 L 180.59375 65.6875 L 185.210938 66.332031 L 187.226562 61.292969 C 188.632812 61.128906 189.988281 60.757812 191.25 60.207031 L 195.226562 63.761719 L 198.945312 60.949219 L 196.8125 55.957031 C 197.683594 54.867188 198.394531 53.648438 198.933594 52.324219 L 204.566406 52.007812 "/>
<path style=" stroke:none;fill-rule:nonzero;fill:rgb(100%,8.628845%,8.628845%);fill-opacity:1;" d="M 223.332031 34.261719 C 222.824219 37.960938 219.410156 40.539062 215.710938 40.03125 C 212.011719 39.519531 209.429688 36.105469 209.945312 32.410156 C 210.453125 28.710938 213.867188 26.125 217.558594 26.640625 C 221.257812 27.152344 223.84375 30.5625 223.332031 34.261719 Z M 230.003906 36.785156 L 230.457031 33.511719 L 226.695312 32.003906 C 226.578125 30.984375 226.304688 30.007812 225.902344 29.085938 L 228.390625 26.300781 L 226.398438 23.671875 L 222.890625 25.175781 C 222.152344 24.585938 221.332031 24.097656 220.441406 23.726562 L 220.222656 19.890625 L 216.957031 19.441406 L 215.535156 22.996094 C 214.484375 23.097656 213.46875 23.359375 212.523438 23.757812 L 209.695312 21.234375 L 207.0625 23.226562 L 208.570312 26.742188 C 207.925781 27.53125 207.394531 28.421875 207.003906 29.402344 L 203.4375 29.597656 L 202.988281 32.871094 L 206.335938 34.207031 C 206.433594 35.234375 206.695312 36.222656 207.078125 37.144531 L 204.523438 40.007812 L 206.515625 42.636719 L 210.054688 41.121094 C 210.875 41.796875 211.8125 42.339844 212.832031 42.738281 L 213.042969 46.460938 L 216.316406 46.914062 L 217.738281 43.347656 C 218.734375 43.230469 219.691406 42.972656 220.582031 42.582031 L 223.398438 45.101562 L 226.03125 43.109375 L 224.515625 39.578125 C 225.136719 38.808594 225.644531 37.941406 226.019531 37.007812 L 230.003906 36.785156 "/>
<path style=" stroke:none;fill-rule:nonzero;fill:rgb(100%,8.628845%,8.628845%);fill-opacity:1;" d="M 33.324219 244.683594 L 25.019531 248.730469 L 21.648438 241.820312 L 29.105469 238.1875 L 28.109375 236.140625 L 20.652344 239.773438 L 17.703125 233.714844 L 25.578125 229.875 L 24.566406 227.804688 L 14.214844 232.84375 L 23.554688 252.011719 L 34.335938 246.761719 L 33.324219 244.683594 "/>
<path style=" stroke:none;fill-rule:nonzero;fill:rgb(100%,8.628845%,8.628845%);fill-opacity:1;" d="M 47.828125 226.214844 L 33.15625 233.363281 L 33.984375 235.070312 L 48.664062 227.917969 Z M 50.542969 231.792969 L 35.871094 238.9375 L 36.699219 240.644531 L 51.378906 233.5 L 50.542969 231.792969 "/>
<path style=" stroke:none;fill-rule:nonzero;fill:rgb(100%,8.628845%,8.628845%);fill-opacity:1;" d="M 74.378906 217.222656 C 72.050781 212.441406 68.765625 212.566406 66.941406 213.449219 C 65.636719 214.089844 64.894531 214.875 64.375 215.898438 C 64.011719 216.605469 63.761719 217.464844 63.714844 218.441406 L 63.652344 218.472656 C 62.265625 217.136719 60.292969 216.699219 58.414062 217.609375 C 56.136719 218.714844 55.453125 220.5625 55.328125 222.25 L 55.238281 222.292969 L 54.046875 220.125 L 51.855469 221.191406 C 52.492188 222.292969 53.089844 223.441406 53.785156 224.863281 L 58.671875 234.902344 L 61.121094 233.710938 L 57.074219 225.410156 C 56.867188 224.980469 56.71875 224.523438 56.679688 224.085938 C 56.464844 222.640625 56.996094 220.835938 58.5625 220.070312 C 60.464844 219.144531 62.203125 220.265625 63.273438 222.457031 L 67.292969 230.703125 L 69.738281 229.507812 L 65.59375 221.011719 C 65.371094 220.550781 65.234375 220.054688 65.183594 219.664062 C 65.015625 218.226562 65.613281 216.636719 67.035156 215.945312 C 69.050781 214.960938 70.796875 216.078125 72.085938 218.726562 L 75.878906 226.515625 L 78.324219 225.328125 L 74.378906 217.222656 "/>
<path style=" stroke:none;fill-rule:nonzero;fill:rgb(100%,8.628845%,8.628845%);fill-opacity:1;" d="M 92.746094 215.34375 C 92.1875 216.007812 91.425781 216.835938 90.011719 217.527344 C 87.277344 218.859375 84.269531 217.890625 82.714844 214.707031 C 81.320312 211.835938 81.886719 208.667969 85.046875 207.136719 C 86.414062 206.464844 87.503906 206.324219 88.265625 206.375 L 87.894531 204.160156 C 87.046875 204.152344 85.554688 204.421875 84.078125 205.140625 C 79.585938 207.332031 78.175781 211.816406 80.242188 216.054688 C 82.296875 220.261719 86.367188 221.765625 90.523438 219.742188 C 92.367188 218.839844 93.597656 217.675781 94.085938 217.015625 L 92.746094 215.34375 "/>
<path style=" stroke:none;fill-rule:nonzero;fill:rgb(100%,8.628845%,8.628845%);fill-opacity:1;" d="M 97.625 201.425781 L 93.820312 203.273438 L 93.808594 203.25 L 94.179688 202.296875 C 95.125 199.707031 95.644531 197.886719 94.886719 196.324219 C 94.289062 195.109375 92.910156 194.238281 91.085938 195.121094 C 90.109375 195.597656 89.453125 196.371094 89.113281 197.152344 L 89.867188 197.78125 C 90.101562 197.265625 90.546875 196.5625 91.316406 196.191406 C 92.582031 195.574219 93.386719 196.167969 93.808594 197.027344 C 94.414062 198.304688 93.96875 199.878906 92.8125 202.996094 L 92.335938 204.308594 L 92.679688 205.011719 L 98.089844 202.378906 L 97.625 201.425781 "/>
<path style=" stroke:none;fill-rule:nonzero;fill:rgb(100%,8.628845%,8.628845%);fill-opacity:1;" d="M 321.390625 147.457031 L 311.332031 142.394531 L 311.128906 132.117188 L 320.851562 127.101562 L 330.539062 131.726562 L 330.738281 141.976562 Z M 331.878906 130.863281 L 320.828125 125.582031 L 309.746094 131.296875 L 309.980469 143.238281 L 321.433594 149.011719 L 332.117188 142.75 L 331.878906 130.863281 "/>
<path style=" stroke:none;fill-rule:nonzero;fill:rgb(100%,8.628845%,8.628845%);fill-opacity:1;" d="M 297.796875 147.921875 L 287.746094 142.859375 L 287.539062 132.582031 L 297.265625 127.5625 L 306.953125 132.191406 L 307.152344 142.441406 Z M 308.292969 131.328125 L 297.238281 126.042969 L 286.160156 131.757812 L 286.394531 143.703125 L 297.84375 149.476562 L 308.527344 143.210938 L 308.292969 131.328125 "/>
<path style=" stroke:none;fill-rule:nonzero;fill:rgb(100%,8.628845%,8.628845%);fill-opacity:1;" d="M 309.683594 167.125 L 299.628906 162.058594 L 299.429688 151.777344 L 309.144531 146.765625 L 318.832031 151.390625 L 319.039062 161.636719 Z M 320.183594 150.527344 L 309.128906 145.246094 L 298.042969 150.953125 L 298.28125 162.90625 L 309.734375 168.667969 L 320.410156 162.410156 L 320.183594 150.527344 "/>
<path style=" stroke:none;fill-rule:nonzero;fill:rgb(100%,8.628845%,8.628845%);fill-opacity:1;" d="M 320.621094 108.425781 L 310.566406 103.359375 L 310.359375 93.085938 L 320.085938 88.070312 L 329.773438 92.695312 L 329.96875 102.945312 Z M 331.113281 91.828125 L 320.058594 86.546875 L 308.980469 92.257812 L 309.214844 104.207031 L 320.664062 109.976562 L 331.347656 103.710938 L 331.113281 91.828125 "/>
<path style=" stroke:none;fill-rule:nonzero;fill:rgb(100%,8.628845%,8.628845%);fill-opacity:1;" d="M 297.027344 108.890625 L 286.976562 103.824219 L 286.773438 93.542969 L 296.496094 88.53125 L 306.183594 93.160156 L 306.382812 103.402344 Z M 307.527344 92.292969 L 296.472656 87.011719 L 285.394531 92.71875 L 285.628906 104.671875 L 297.082031 110.4375 L 307.761719 104.175781 L 307.527344 92.292969 "/>
<path style=" stroke:none;fill-rule:nonzero;fill:rgb(100%,8.628845%,8.628845%);fill-opacity:1;" d="M 308.917969 128.089844 L 298.859375 123.023438 L 298.660156 112.746094 L 308.378906 107.734375 L 318.066406 112.359375 L 318.269531 122.601562 Z M 319.414062 111.492188 L 308.359375 106.210938 L 297.277344 111.921875 L 297.511719 123.871094 L 308.96875 129.636719 L 319.648438 123.375 L 319.414062 111.492188 "/>
<path style=" stroke:none;fill-rule:nonzero;fill:rgb(100%,8.628845%,8.628845%);fill-opacity:1;" d="M 285.207031 128.609375 L 275.148438 123.542969 L 274.953125 113.265625 L 284.675781 108.253906 L 294.359375 112.878906 L 294.5625 123.128906 Z M 295.707031 112.011719 L 284.652344 106.730469 L 273.570312 112.449219 L 273.800781 124.390625 L 285.257812 130.160156 L 295.941406 123.894531 L 295.707031 112.011719 "/>
<path style=" stroke:none;fill-rule:nonzero;fill:rgb(100%,8.628845%,8.628845%);fill-opacity:1;" d="M 261.621094 129.074219 L 251.5625 124.007812 L 251.367188 113.726562 L 261.089844 108.714844 L 270.769531 113.34375 L 270.976562 123.585938 Z M 272.117188 112.476562 L 261.066406 107.195312 L 249.984375 112.902344 L 250.214844 124.855469 L 261.667969 130.625 L 272.355469 124.359375 L 272.117188 112.476562 "/>
<path style=" stroke:none;fill-rule:nonzero;fill:rgb(100%,8.628845%,8.628845%);fill-opacity:1;" d="M 273.507812 148.273438 L 263.445312 143.210938 L 263.246094 132.929688 L 272.972656 127.917969 L 282.660156 132.542969 L 282.855469 142.789062 Z M 284 131.679688 L 272.945312 126.394531 L 261.867188 132.105469 L 262.105469 144.054688 L 273.554688 149.820312 L 284.234375 143.5625 L 284 131.679688 "/>
<path style=" stroke:none;fill-rule:nonzero;fill:rgb(100%,8.628845%,8.628845%);fill-opacity:1;" d="M 284.445312 89.914062 L 274.390625 84.84375 L 274.191406 74.570312 L 283.914062 69.554688 L 293.597656 74.1875 L 293.800781 84.429688 Z M 294.945312 73.3125 L 283.890625 68.03125 L 272.8125 73.746094 L 273.046875 85.691406 L 284.496094 91.464844 L 295.179688 85.203125 L 294.945312 73.3125 "/>
<path style=" stroke:none;fill-rule:nonzero;fill:rgb(100%,8.628845%,8.628845%);fill-opacity:1;" d="M 260.859375 90.375 L 250.800781 85.308594 L 250.605469 75.035156 L 260.328125 70.019531 L 270.007812 74.644531 L 270.214844 84.894531 Z M 271.355469 73.777344 L 260.304688 68.496094 L 249.226562 74.210938 L 249.460938 86.15625 L 260.910156 91.925781 L 271.59375 85.667969 L 271.355469 73.777344 "/>
<path style=" stroke:none;fill-rule:nonzero;fill:rgb(100%,8.628845%,8.628845%);fill-opacity:1;" d="M 272.75 109.578125 L 262.691406 104.507812 L 262.484375 94.234375 L 272.210938 89.21875 L 281.898438 93.847656 L 282.097656 104.097656 Z M 283.238281 92.980469 L 272.183594 87.695312 L 261.109375 93.414062 L 261.34375 105.359375 L 272.792969 111.128906 L 283.476562 104.863281 L 283.238281 92.980469 "/>
<path style=" stroke:none;fill-rule:nonzero;fill:rgb(100%,8.628845%,8.628845%);fill-opacity:1;" d="M 249.535156 110.117188 L 239.472656 105.046875 L 239.273438 94.773438 L 248.996094 89.757812 L 258.683594 94.382812 L 258.878906 104.632812 Z M 260.027344 93.515625 L 248.976562 88.234375 L 237.890625 93.949219 L 238.125 105.898438 L 249.582031 111.667969 L 260.261719 105.40625 L 260.027344 93.515625 "/>
<path style=" stroke:none;fill-rule:nonzero;fill:rgb(100%,8.628845%,8.628845%);fill-opacity:1;" d="M 225.945312 110.578125 L 215.886719 105.511719 L 215.683594 95.238281 L 225.410156 90.222656 L 235.097656 94.847656 L 235.292969 105.097656 Z M 236.445312 93.980469 L 225.382812 88.699219 L 214.304688 94.414062 L 214.539062 106.359375 L 225.988281 112.132812 L 236.675781 105.863281 L 236.445312 93.980469 "/>
<path style=" stroke:none;fill-rule:nonzero;fill:rgb(100%,8.628845%,8.628845%);fill-opacity:1;" d="M 237.828125 129.78125 L 227.773438 124.714844 L 227.574219 114.429688 L 237.292969 109.421875 L 246.976562 114.050781 L 247.183594 124.292969 Z M 248.328125 113.183594 L 237.273438 107.898438 L 226.195312 113.609375 L 226.421875 125.5625 L 237.878906 131.332031 L 248.554688 125.066406 L 248.328125 113.183594 "/>
<path style=" stroke:none;fill-rule:nonzero;fill:rgb(100%,8.628845%,8.628845%);fill-opacity:1;" d="M 218.609375 251.324219 L 175.5625 257.976562 L 143.273438 289.082031 L 161.964844 287.167969 L 167.75 298.714844 C 167.75 298.714844 177.894531 298.609375 192.304688 291.386719 C 206.714844 284.160156 212.871094 276.101562 212.871094 276.101562 L 206.945312 264.277344 L 218.609375 251.324219 "/>
<path style=" stroke:none;fill-rule:nonzero;fill:rgb(100%,8.628845%,8.628845%);fill-opacity:1;" d="M 155.410156 312.730469 C 154.929688 312.730469 154.523438 312.363281 154.484375 311.875 C 154.203125 308.253906 152.949219 290.027344 155.914062 287.0625 C 164.550781 278.429688 178.171875 268.605469 178.3125 268.507812 C 178.726562 268.207031 179.304688 268.304688 179.605469 268.71875 C 179.90625 269.136719 179.808594 269.714844 179.394531 270.015625 C 179.257812 270.113281 165.753906 279.851562 157.226562 288.375 C 155.496094 290.109375 155.664062 303.078125 156.335938 311.730469 C 156.375 312.246094 155.992188 312.6875 155.484375 312.726562 C 155.460938 312.730469 155.433594 312.730469 155.410156 312.730469 "/>
<path style=" stroke:none;fill-rule:nonzero;fill:rgb(100%,8.628845%,8.628845%);fill-opacity:1;" d="M 150.695312 325.152344 C 150.859375 328.035156 156.492188 325.261719 156.492188 325.261719 C 158.699219 325.140625 162.140625 326.722656 162.015625 324.515625 C 162.015625 324.515625 159.488281 309.847656 155.511719 310.074219 C 151.535156 310.296875 150.492188 321.488281 150.695312 325.152344 "/>
</g>
<clipPath id="clip8">
  <path d="M 61 215.5625 L 197 215.5625 L 197 341 L 61 341 Z M 61 215.5625 "/>
</clipPath>
<clipPath id="clip9">
  <path d="M 58.5 219 L 116 219 L 116 350 L 58.5 350 Z M 58.5 219 "/>
</clipPath>
<clipPath id="clip10">
  <path d="M 117 237 L 208.5 237 L 208.5 355.8125 L 117 355.8125 Z M 117 237 "/>
</clipPath>
<clipPath id="clip11">
  <path d="M 96 245 L 132 245 L 132 355.8125 L 96 355.8125 Z M 96 245 "/>
</clipPath>
</defs>
<g id="surface1">
<use xlink:href="#surface5" transform="matrix(1,0,0,1,3,3)" mask="url(#mask0)"/>
<path style=" stroke:none;fill-rule:nonzero;fill:rgb(92.158508%,50.979614%,24.708557%);fill-opacity:1;" d="M 259.324219 341.066406 C 259.324219 341.066406 297.828125 341.324219 298.859375 339.777344 C 299.890625 338.234375 292.5 211.898438 271.871094 191.425781 C 271.699219 187.425781 238.882812 176.242188 238.882812 176.242188 L 194.003906 213.335938 L 184.203125 310.269531 L 259.324219 341.066406 "/>
<path style=" stroke:none;fill-rule:nonzero;fill:rgb(92.158508%,50.979614%,24.708557%);fill-opacity:1;" d="M 112.523438 177.132812 C 112.523438 177.132812 75.398438 222.082031 75.050781 243.1875 C 75.398438 252.625 89.664062 266.691406 97.570312 267.035156 C 105.476562 267.378906 160.386719 250.5625 160.386719 250.5625 L 161.410156 217.109375 L 136.074219 204.238281 L 138.964844 197.546875 C 138.964844 197.546875 131.949219 175.242188 112.523438 177.132812 "/>
<path style=" stroke:none;fill-rule:nonzero;fill:rgb(80.389404%,38.42926%,23.529053%);fill-opacity:1;" d="M 171.65625 183.492188 C 171.65625 183.492188 161.472656 187.296875 159.410156 187.167969 C 157.347656 187.042969 156.058594 191.425781 156.058594 191.425781 L 136.136719 204.097656 C 136.136719 204.097656 109.261719 250.605469 106.9375 253.695312 C 104.617188 256.785156 114.675781 260.257812 119.703125 239.023438 C 122.152344 238.898438 119.445312 249.0625 121.636719 251.121094 C 123.828125 253.179688 127.566406 240.183594 127.566406 240.183594 L 157.734375 238.640625 C 157.734375 238.640625 158.507812 337.464844 157.734375 339.523438 C 156.960938 341.582031 258.292969 343.382812 259.324219 341.066406 C 260.351562 338.75 219.355469 299.632812 196.152344 290.367188 C 209.300781 290.109375 226.0625 297.316406 226.316406 293.457031 C 226.578125 289.597656 199.101562 278.53125 194.789062 272.09375 C 190.480469 265.664062 199.753906 215.738281 199.753906 215.738281 C 199.753906 215.738281 209.046875 231.953125 214.714844 230.277344 C 220.390625 228.605469 243.464844 180.351562 242.175781 178.289062 C 240.886719 176.230469 233.410156 174.617188 233.410156 174.617188 L 171.65625 183.492188 "/>
<path style=" stroke:none;fill-rule:nonzero;fill:rgb(80.389404%,38.42926%,23.529053%);fill-opacity:1;" d="M 217.8125 160.960938 C 217.9375 160.960938 227.394531 161.21875 228.898438 165.421875 C 230.402344 169.625 218.84375 181.378906 218.84375 181.378906 L 217.8125 160.960938 "/>
<path style=" stroke:none;fill-rule:nonzero;fill:rgb(28.62854%,23.529053%,20.779419%);fill-opacity:1;" d="M 224.992188 121.097656 C 224.992188 121.097656 224.058594 148.050781 217.390625 157.703125 C 210.71875 167.351562 204.445312 132.351562 204.445312 132.351562 L 224.992188 121.097656 "/>
<path style=" stroke:none;fill-rule:nonzero;fill:rgb(91.369629%,56.858826%,43.528748%);fill-opacity:1;" d="M 212.523438 134.027344 C 212.523438 134.027344 222.582031 168.382812 221.808594 178.289062 C 221.035156 188.199219 199.765625 200.296875 199.765625 200.296875 C 199.765625 200.296875 188.933594 189.355469 187.128906 182.792969 C 185.324219 176.230469 212.523438 134.027344 212.523438 134.027344 "/>
<path style=" stroke:none;fill-rule:nonzero;fill:rgb(92.158508%,50.979614%,24.708557%);fill-opacity:1;" d="M 188.160156 182.15625 C 188.289062 182.535156 199.382812 198.878906 199.765625 200.296875 C 200.148438 201.710938 187.667969 218.4375 185.207031 218.308594 C 182.746094 218.179688 176.425781 191.03125 176.425781 186.527344 C 176.425781 182.019531 188.160156 182.15625 188.160156 182.15625 "/>
<path style=" stroke:none;fill-rule:nonzero;fill:rgb(97.648621%,68.238831%,46.669006%);fill-opacity:1;" d="M 150 179.878906 C 150 179.878906 157.648438 185.816406 173.03125 185.847656 C 188.414062 185.882812 211.707031 183.136719 213.769531 176.277344 C 215.832031 169.414062 214.628906 132.867188 214.628906 132.867188 C 214.628906 132.867188 225.289062 129.386719 228.898438 117.574219 C 232.507812 105.757812 228.511719 97.929688 228.511719 97.929688 C 228.511719 97.929688 227.863281 92.378906 220.644531 90.492188 C 214.800781 78.480469 178.1875 55.660156 159.109375 60.121094 C 140.027344 64.582031 140.003906 80.082031 140.003906 80.082031 C 140.003906 80.082031 143.128906 127.71875 141.578125 138.53125 C 140.027344 149.335938 150 179.878906 150 179.878906 "/>
<path style=" stroke:none;fill-rule:nonzero;fill:rgb(91.369629%,56.858826%,43.528748%);fill-opacity:1;" d="M 142.519531 79.679688 C 142.519531 79.679688 139.855469 90.316406 142.519531 91.433594 C 145.183594 92.550781 163.269531 83.191406 166.089844 85.082031 C 168.90625 86.972656 170.453125 91.175781 170.453125 91.175781 C 170.453125 91.175781 177.5 84.914062 179.820312 86.203125 C 182.140625 87.488281 201.828125 94.8125 201.828125 94.8125 C 201.828125 94.8125 176.113281 87.144531 174.058594 100.699219 C 177.328125 102.414062 178.359375 106.226562 173.203125 117.574219 C 178.703125 111.9375 179.5625 113.050781 180.507812 114.851562 C 181.453125 116.65625 172.601562 142.476562 172.601562 142.476562 C 172.601562 142.476562 173.632812 144.878906 177.585938 138.871094 C 177.585938 138.871094 176.71875 147.109375 170.707031 148.136719 C 164.179688 162.636719 155.15625 169.667969 155.15625 169.667969 L 150 180.304688 L 141.335938 176.1875 L 136.417969 124.117188 C 136.417969 124.117188 130.488281 115.710938 131.089844 103.445312 C 131.691406 91.175781 139.425781 96.496094 139.425781 96.496094 C 139.425781 96.496094 134.957031 82.597656 142.519531 79.679688 "/>
<path style=" stroke:none;fill-rule:nonzero;fill:rgb(86.268616%,48.629761%,42.749023%);fill-opacity:1;" d="M 169.636719 140.589844 C 169.636719 140.589844 171.125 142.324219 172.746094 142.679688 C 174.363281 143.03125 177.585938 138.871094 177.585938 138.871094 C 177.585938 138.871094 174.835938 148.910156 169.636719 143.847656 C 168.089844 142.257812 169.636719 140.589844 169.636719 140.589844 "/>
<path style=" stroke:none;fill-rule:nonzero;fill:rgb(16.468811%,15.689087%,15.289307%);fill-opacity:1;" d="M 199.210938 115.457031 C 196.871094 114.863281 194.390625 114.890625 191.996094 114.601562 C 189.636719 114.316406 187.175781 113.558594 184.824219 113.992188 C 184.289062 114.09375 184.015625 115.027344 184.503906 115.347656 C 186.410156 116.59375 188.941406 116.71875 191.171875 117.011719 C 193.738281 117.351562 196.398438 117.796875 198.976562 117.445312 C 199.816406 117.328125 200.121094 115.691406 199.210938 115.457031 "/>
<path style=" stroke:none;fill-rule:nonzero;fill:rgb(28.62854%,23.529053%,20.779419%);fill-opacity:1;" d="M 161.652344 80.914062 C 158.554688 80.429688 155.445312 81.292969 152.640625 82.582031 C 150.152344 83.722656 146.65625 85.355469 145 87.660156 C 144.074219 88.949219 143.199219 91.914062 143.972656 93.417969 C 144.238281 93.933594 144.632812 94.226562 145.089844 94.390625 C 145.179688 94.632812 145.367188 94.816406 145.6875 94.8125 C 149.703125 94.773438 153.722656 94.070312 157.664062 93.351562 C 160.246094 92.882812 163.371094 92.765625 164.914062 90.3125 C 167.316406 86.5 166.34375 81.640625 161.652344 80.914062 "/>
<path style=" stroke:none;fill-rule:nonzero;fill:rgb(28.62854%,23.529053%,20.779419%);fill-opacity:1;" d="M 186.378906 82.074219 C 182.167969 81.074219 174.175781 80.492188 174.511719 86.207031 C 174.019531 87.363281 173.898438 88.660156 174.285156 90.066406 C 175.246094 93.566406 178.429688 94.589844 181.554688 95.539062 C 185.574219 96.753906 200.828125 101.019531 201.785156 93.972656 C 202.625 87.800781 190.945312 83.160156 186.378906 82.074219 "/>
<path style=" stroke:none;fill-rule:nonzero;fill:rgb(90.589905%,44.309998%,45.098877%);fill-opacity:1;" d="M 194.292969 168.128906 C 186.527344 162.492188 170.96875 161.371094 162.097656 164.582031 C 161.347656 164.851562 161.027344 166.378906 162.097656 166.390625 C 167.15625 166.460938 172.03125 165.75 177.113281 166.351562 C 182.757812 167.027344 187.636719 169.488281 193.078125 170.582031 C 194.351562 170.835938 195.46875 168.984375 194.292969 168.128906 "/>
<path style=" stroke:none;fill-rule:nonzero;fill:rgb(28.62854%,23.529053%,20.779419%);fill-opacity:1;" d="M 180.4375 176.59375 C 179.386719 174.261719 177.375 174.9375 175.996094 176.273438 C 175.105469 173.636719 171.679688 171.570312 169.261719 171.082031 C 166.503906 170.519531 163.960938 171.644531 163.1875 173.976562 C 162.933594 173.847656 162.640625 173.730469 162.296875 173.621094 C 161.621094 173.402344 160.777344 173.886719 160.609375 174.589844 C 159.828125 177.898438 161.277344 181.6875 162.382812 184.8125 C 163.234375 187.210938 164.246094 191.292969 167.320312 191.425781 C 167.527344 191.433594 167.707031 191.359375 167.875 191.25 C 168.339844 191.160156 168.78125 190.925781 169.125 190.582031 C 169.847656 189.851562 170.023438 188.773438 170.042969 187.789062 C 170.90625 188.460938 171.902344 189.007812 172.789062 189.429688 C 176.015625 190.953125 178.234375 189.667969 179.519531 186.539062 C 180.644531 183.804688 181.734375 179.476562 180.4375 176.59375 "/>
<path style=" stroke:none;fill-rule:nonzero;fill:rgb(28.62854%,23.529053%,20.779419%);fill-opacity:1;" d="M 221.160156 95.671875 C 221.160156 95.671875 215.359375 125.921875 211.621094 125.148438 C 207.882812 124.375 211.621094 87.796875 211.621094 87.796875 C 211.621094 87.796875 209.6875 88.476562 208.140625 86.800781 C 206.59375 85.128906 208.140625 82.171875 208.140625 82.171875 C 208.140625 82.171875 196.304688 77.023438 192.007812 76.25 C 191.1875 75.738281 192.796875 72.777344 192.796875 72.777344 C 192.796875 72.777344 170.558594 76.1875 165.46875 74.964844 C 164.5 74.386719 166.691406 71.875 166.691406 71.875 C 166.691406 71.875 156.378906 73.933594 155.539062 72.96875 C 154.703125 72.003906 157.023438 70.136719 157.023438 70.136719 C 157.023438 70.136719 148.773438 76.1875 146.582031 74.773438 C 142.457031 82.554688 141.660156 90.40625 142.003906 93.664062 C 142.347656 96.925781 142.894531 110.738281 141.933594 110.304688 C 140.972656 109.878906 130.917969 84.484375 139.683594 68.53125 C 136.761719 68.703125 127.050781 65.441406 127.050781 62.351562 C 127.050781 59.265625 142.90625 50.257812 152.703125 51.929688 C 149.351562 50 142.777344 46.398438 140.199219 43.824219 C 137.621094 41.25 162.761719 30.957031 180.9375 36.746094 C 199.113281 42.539062 204.65625 50.386719 204.65625 50.386719 C 204.65625 50.386719 212.910156 50.902344 215.230469 62.996094 C 215.230469 61.96875 214.585938 56.308594 216.390625 56.691406 C 218.195312 57.078125 225.671875 74.191406 222.582031 84.101562 C 226.1875 82.683594 232.121094 85.382812 228.511719 97.933594 C 226.445312 93.234375 221.160156 95.671875 221.160156 95.671875 "/>
<path style=" stroke:none;fill-rule:nonzero;fill:rgb(97.648621%,68.238831%,46.669006%);fill-opacity:1;" d="M 125.40625 157.960938 L 130.273438 147.535156 C 130.273438 147.535156 131.433594 129.605469 131.863281 124.460938 C 132.292969 119.3125 140.007812 107.261719 141.617188 107.519531 C 143.230469 107.773438 142.585938 113.308594 142.585938 113.308594 C 142.585938 113.308594 154.480469 94.359375 159.214844 95.839844 C 161.183594 96.839844 155.863281 108.675781 155.863281 108.675781 C 155.863281 108.675781 165.039062 94.421875 167.960938 95.757812 C 170.882812 97.09375 162.203125 115.710938 162.203125 115.710938 C 162.203125 115.710938 172.171875 99.070312 175.09375 102.5 C 178.015625 105.933594 168.734375 124.375 168.734375 124.375 C 168.734375 124.375 177.070312 112.449219 178.617188 115.367188 C 180.164062 118.285156 174.835938 135.441406 171.226562 141.015625 C 167.703125 156.628906 153.695312 168.039062 153.695312 168.039062 L 148.96875 175.503906 L 125.40625 157.960938 "/>
<path style=" stroke:none;fill-rule:nonzero;fill:rgb(92.158508%,50.979614%,24.708557%);fill-opacity:1;" d="M 114.289062 174.617188 C 114.289062 174.617188 125.117188 152.8125 127.050781 153.328125 C 128.984375 153.84375 153.09375 173.742188 152.835938 175.503906 C 152.578125 177.261719 141.230469 196.046875 140.457031 195.921875 C 139.683594 195.789062 114.289062 174.617188 114.289062 174.617188 "/>
<path style=" stroke:none;fill-rule:nonzero;fill:rgb(87.449646%,85.099792%,82.348633%);fill-opacity:1;" d="M 145.390625 182.070312 C 145.390625 184.160156 143.695312 185.847656 141.601562 185.847656 C 139.511719 185.847656 137.816406 184.160156 137.816406 182.070312 C 137.816406 179.984375 139.511719 178.289062 141.601562 178.289062 C 143.695312 178.289062 145.390625 179.984375 145.390625 182.070312 "/>
<path style=" stroke:none;fill-rule:nonzero;fill:rgb(73.728943%,70.979309%,70.199585%);fill-opacity:1;" d="M 144.242188 182.070312 C 144.242188 183.523438 143.058594 184.703125 141.601562 184.703125 C 140.144531 184.703125 138.964844 183.523438 138.964844 182.070312 C 138.964844 180.613281 140.144531 179.4375 141.601562 179.4375 C 143.058594 179.4375 144.242188 180.613281 144.242188 182.070312 "/>
<path style=" stroke:none;fill-rule:nonzero;fill:rgb(92.939758%,87.838745%,87.449646%);fill-opacity:1;" d="M 143.035156 181.96875 C 142.785156 181.65625 142.503906 181.523438 142.195312 181.523438 C 142.101562 181.242188 141.957031 180.984375 141.675781 180.839844 C 141.539062 180.769531 141.394531 180.890625 141.316406 180.984375 C 141.183594 181.152344 141.097656 181.359375 141.039062 181.585938 C 140.929688 181.550781 140.796875 181.527344 140.589844 181.523438 C 140.058594 181.523438 139.722656 182.527344 140.324219 182.652344 C 140.652344 182.726562 140.828125 182.722656 140.996094 182.671875 C 141.035156 182.863281 141.09375 183.046875 141.171875 183.203125 C 141.34375 183.546875 141.820312 183.617188 142.023438 183.238281 C 142.054688 183.183594 142.070312 183.105469 142.097656 183.039062 C 142.273438 183.0625 142.464844 183.050781 142.679688 182.964844 C 143.042969 182.824219 143.316406 182.328125 143.035156 181.96875 "/>
<path style=" stroke:none;fill-rule:nonzero;fill:rgb(91.369629%,56.858826%,43.528748%);fill-opacity:1;" d="M 217.726562 118.585938 C 217.726562 118.585938 223.441406 118.242188 223.78125 114.808594 C 224.125 111.378906 220.089844 110.648438 220.089844 110.648438 C 220.089844 110.648438 219.355469 103.269531 223.804688 102.714844 C 228.253906 102.15625 230.484375 116.570312 223.804688 122.316406 C 217.125 128.0625 216.90625 121.457031 217.726562 118.585938 "/>
<path style=" stroke:none;fill-rule:nonzero;fill:rgb(92.158508%,50.979614%,24.708557%);fill-opacity:1;" d="M 199.765625 200.296875 C 199.765625 200.296875 220.515625 185.496094 226.191406 165.292969 C 226.578125 162.722656 219.320312 160.960938 219.320312 160.960938 C 219.320312 160.960938 223.660156 158.859375 228.019531 161.304688 C 232.378906 163.75 239.597656 174.300781 238.824219 178.289062 C 238.050781 182.28125 217.425781 219.851562 214.972656 219.464844 C 212.523438 219.082031 199.378906 202.292969 199.765625 200.296875 "/>
<path style=" stroke:none;fill-rule:nonzero;fill:rgb(80.389404%,38.42926%,23.529053%);fill-opacity:1;" d="M 114.289062 174.617188 L 140.003906 195.636719 L 138.964844 197.546875 C 138.964844 197.546875 112.523438 177.5625 112.523438 177.132812 C 112.523438 176.703125 114.289062 174.617188 114.289062 174.617188 "/>
<path style=" stroke:none;fill-rule:nonzero;fill:rgb(80.389404%,38.42926%,23.529053%);fill-opacity:1;" d="M 261.726562 341.078125 C 261.726562 341.078125 253.996094 243.359375 252.273438 239.070312 C 250.554688 234.78125 249.527344 253.308594 249.527344 253.308594 C 249.527344 253.308594 244.289062 246.101562 241.578125 244.042969 C 238.867188 241.984375 249.867188 272.523438 249.867188 272.523438 L 251.4375 341.894531 C 251.4375 341.894531 260.8125 341.828125 261.726562 341.078125 "/>
<path style=" stroke:none;fill-rule:nonzero;fill:rgb(80.389404%,38.42926%,23.529053%);fill-opacity:1;" d="M 213.8125 241.726562 C 213.8125 241.726562 212.910156 271.582031 216.648438 276.855469 C 220.390625 282.132812 240.5 286.765625 243.464844 286.507812 C 246.429688 286.25 246.429688 268.546875 245.527344 267.039062 C 244.625 265.53125 235.601562 251.378906 235.472656 249.835938 C 235.34375 248.289062 242.691406 255.367188 242.433594 254.339844 C 242.175781 253.308594 240.5 243.53125 239.597656 242.628906 C 238.695312 241.726562 213.84375 240.835938 213.8125 241.726562 "/>
<path style=" stroke:none;fill-rule:nonzero;fill:rgb(70.199585%,27.839661%,21.958923%);fill-opacity:1;" d="M 214.113281 240.785156 C 214.113281 240.785156 241.144531 239.746094 247.546875 241.359375 C 246.773438 239.542969 220.128906 237.695312 214.113281 240.785156 "/>
<path style=" stroke:none;fill-rule:nonzero;fill:rgb(32.159424%,26.669312%,23.529053%);fill-opacity:1;" d="M 222.613281 84.085938 C 225.710938 74.179688 218.230469 57.066406 216.425781 56.679688 C 214.621094 56.292969 215.265625 61.953125 215.265625 62.984375 C 212.945312 50.886719 204.695312 50.375 204.695312 50.375 C 204.695312 50.375 199.152344 42.523438 180.972656 36.734375 C 173.738281 34.429688 165.40625 34.675781 158.152344 35.964844 C 167.171875 38.652344 177 42.382812 181.058594 46.726562 C 182.175781 48.097656 162.578125 55.136719 162.578125 55.136719 C 162.578125 55.136719 195.066406 60.109375 197.476562 62.511719 C 199.882812 64.914062 184.238281 66.800781 184.238281 66.800781 C 184.238281 66.800781 216.261719 72.191406 209.238281 87.574219 C 210.484375 88.179688 211.65625 87.78125 211.65625 87.78125 C 211.65625 87.78125 207.917969 124.363281 211.65625 125.132812 C 215.394531 125.90625 221.195312 95.660156 221.195312 95.660156 C 221.195312 95.660156 226.484375 93.222656 228.542969 97.917969 C 232.152344 85.367188 226.226562 82.671875 222.613281 84.085938 "/>
<path style=" stroke:none;fill-rule:nonzero;fill:rgb(70.199585%,27.839661%,21.958923%);fill-opacity:1;" d="M 258.292969 341.652344 C 258.292969 341.652344 253.140625 254.03125 251.4375 252.109375 C 249.734375 250.183594 254.84375 341.824219 254.84375 341.824219 L 258.292969 341.652344 "/>
<path style=" stroke:none;fill-rule:nonzero;fill:rgb(70.199585%,27.839661%,21.958923%);fill-opacity:1;" d="M 157.824219 251.34375 C 157.824219 251.34375 158.25 210.460938 159.539062 204.539062 C 157.089844 202.867188 149.148438 239.210938 157.824219 251.34375 "/>
<path style=" stroke:none;fill-rule:nonzero;fill:rgb(100%,100%,100%);fill-opacity:1;" d="M 115.984375 339.070312 C 116.152344 339.050781 132.941406 337.398438 149.535156 335.734375 C 159.277344 334.753906 167.050781 333.960938 172.636719 333.378906 C 175.792969 333.046875 178.429688 332.765625 180.28125 332.554688 C 183.726562 332.167969 183.726562 332.167969 184.035156 331.648438 C 184.195312 331.375 184.320312 331.164062 195.484375 239.074219 L 195.582031 238.257812 L 194.832031 237.933594 C 194.71875 237.886719 183.496094 233.015625 176.628906 230.175781 L 176.179688 229.988281 L 175.738281 230.203125 C 175.640625 230.25 165.726562 235.007812 157.179688 235.839844 C 155.511719 236.003906 152.96875 236.207031 150.027344 236.449219 C 132.902344 237.839844 117.214844 239.269531 112.957031 241.375 L 76.066406 216.777344 L 62.574219 221.246094 L 80.925781 321.808594 L 115.675781 339.097656 L 115.984375 339.070312 "/>
<g clip-path="url(#clip8)" clip-rule="nonzero">
<path style=" stroke:none;fill-rule:nonzero;fill:rgb(34.509277%,12.939453%,13.328552%);fill-opacity:1;" d="M 76.226562 215.570312 L 77.109375 216.15625 L 113.070312 240.132812 C 117.644531 238.277344 129.632812 237.007812 149.9375 235.355469 C 152.875 235.117188 155.414062 234.910156 157.074219 234.75 C 165.441406 233.9375 175.171875 229.261719 175.269531 229.214844 L 176.144531 228.789062 L 177.042969 229.160156 C 183.917969 232.007812 195.152344 236.878906 195.265625 236.925781 L 196.761719 237.578125 L 196.566406 239.207031 C 196.566406 239.207031 193.78125 262.171875 190.976562 285.175781 C 189.347656 298.53125 188.042969 309.183594 187.097656 316.839844 C 186.566406 321.167969 186.117188 324.785156 185.792969 327.324219 C 185.234375 331.761719 185.234375 331.761719 184.976562 332.203125 C 184.414062 333.15625 183.609375 333.257812 182.589844 333.390625 C 182.089844 333.453125 181.355469 333.539062 180.402344 333.644531 C 178.644531 333.84375 176.066406 334.121094 172.75 334.464844 C 167.164062 335.050781 159.390625 335.84375 149.640625 336.820312 C 133.046875 338.492188 116.261719 340.144531 116.09375 340.160156 L 115.472656 340.222656 L 114.910156 339.941406 L 80.933594 323.035156 L 79.953125 322.546875 L 79.757812 321.464844 L 61.671875 222.386719 L 61.328125 220.503906 L 63.136719 219.910156 L 75.222656 215.902344 Z M 75.90625 217.984375 L 63.816406 221.988281 L 81.902344 321.070312 L 115.878906 337.976562 C 115.878906 337.976562 182.929688 331.375 183.097656 331.089844 C 183.265625 330.800781 194.402344 238.941406 194.402344 238.941406 C 194.402344 238.941406 183.152344 234.058594 176.210938 231.191406 C 176.210938 231.191406 166.132812 236.070312 157.28125 236.929688 C 148.429688 237.789062 116.265625 239.800781 112.929688 242.671875 L 75.90625 217.984375 "/>
</g>
<path style=" stroke:none;fill-rule:nonzero;fill:rgb(68.238831%,16.468811%,21.179199%);fill-opacity:1;" d="M 112.929688 347.921875 C 113.179688 347.921875 113.425781 347.855469 113.648438 347.722656 C 114.125 347.4375 114.390625 346.898438 114.324219 346.347656 L 103.039062 248.757812 C 102.992188 248.347656 102.765625 247.976562 102.421875 247.746094 L 62.175781 220.8125 C 61.941406 220.65625 61.671875 220.578125 61.398438 220.578125 C 61.144531 220.578125 60.894531 220.644531 60.667969 220.785156 C 60.203125 221.066406 59.945312 221.597656 60.003906 222.140625 L 70.277344 317.53125 C 70.320312 317.9375 70.535156 318.304688 70.867188 318.539062 L 112.125 347.664062 C 112.367188 347.835938 112.648438 347.921875 112.929688 347.921875 "/>
<g clip-path="url(#clip9)" clip-rule="nonzero">
<path style=" stroke:none;fill-rule:nonzero;fill:rgb(34.509277%,12.939453%,13.328552%);fill-opacity:1;" d="M 61.398438 219.167969 C 61.941406 219.167969 62.484375 219.324219 62.953125 219.640625 L 103.203125 246.570312 C 103.890625 247.03125 104.339844 247.769531 104.433594 248.59375 L 115.722656 346.183594 C 115.847656 347.289062 115.320312 348.367188 114.367188 348.933594 C 113.925781 349.199219 113.425781 349.335938 112.929688 349.335938 C 112.363281 349.335938 111.800781 349.160156 111.316406 348.820312 L 70.0625 319.691406 C 69.398438 319.222656 68.96875 318.492188 68.882812 317.683594 L 58.605469 222.292969 C 58.492188 221.203125 59.007812 220.144531 59.941406 219.578125 C 60.390625 219.300781 60.894531 219.167969 61.398438 219.167969 Z M 61.398438 221.988281 L 71.671875 317.382812 L 112.929688 346.507812 L 101.644531 248.921875 L 61.398438 221.988281 "/>
</g>
<path style=" stroke:none;fill-rule:nonzero;fill:rgb(68.238831%,16.468811%,21.179199%);fill-opacity:1;" d="M 206.964844 340.714844 L 198.035156 238.679688 L 118.738281 252.820312 L 127.523438 353.457031 L 206.964844 340.714844 "/>
<g clip-path="url(#clip10)" clip-rule="nonzero">
<path style=" stroke:none;fill-rule:nonzero;fill:rgb(34.509277%,12.939453%,13.328552%);fill-opacity:1;" d="M 199.300781 237.019531 L 199.566406 240.09375 L 208.25 339.285156 L 208.476562 341.902344 L 205.894531 342.320312 L 129.230469 354.613281 L 126.257812 355.089844 L 125.992188 352.074219 L 117.449219 254.230469 L 117.226562 251.65625 L 119.757812 251.203125 L 196.28125 237.5625 Z M 196.773438 240.339844 L 120.246094 253.984375 L 128.792969 351.824219 L 205.449219 339.53125 L 196.773438 240.339844 "/>
</g>
<path style=" stroke:none;fill-rule:nonzero;fill:rgb(68.238831%,16.468811%,21.179199%);fill-opacity:1;" d="M 121.917969 354.773438 C 124.210938 354.773438 126.703125 354.222656 129.328125 353.128906 L 130.277344 352.734375 L 121.550781 252.777344 L 120.484375 252.59375 C 120.417969 252.582031 113.605469 251.378906 104.519531 247.617188 L 104.140625 247.457031 L 103.730469 247.53125 C 103.507812 247.574219 98.253906 248.605469 97.554688 253.792969 C 96.96875 258.113281 110.425781 339.941406 111.960938 349.257812 L 112 349.503906 L 112.125 349.722656 C 112.242188 349.929688 115.050781 354.773438 121.917969 354.773438 "/>
<g clip-path="url(#clip11)" clip-rule="nonzero">
<path style=" stroke:none;fill-rule:nonzero;fill:rgb(34.509277%,12.939453%,13.328552%);fill-opacity:1;" d="M 104.289062 245.992188 L 105.054688 246.308594 C 114.023438 250.023438 120.65625 251.191406 120.722656 251.203125 L 122.855469 251.570312 L 123.042969 253.738281 L 131.585938 351.578125 L 131.765625 353.640625 L 129.863281 354.433594 C 127.070312 355.597656 124.394531 356.1875 121.917969 356.1875 C 114.242188 356.1875 111.035156 350.652344 110.90625 350.417969 L 110.660156 349.980469 L 110.578125 349.488281 C 110.539062 349.261719 106.789062 326.511719 103.15625 303.535156 C 95.746094 256.664062 96.027344 254.597656 96.160156 253.601562 C 96.828125 248.664062 101.074219 246.589844 103.476562 246.144531 Z M 103.988281 248.921875 C 103.988281 248.921875 99.515625 249.75 98.945312 253.984375 C 98.371094 258.21875 113.347656 349.027344 113.347656 349.027344 C 113.347656 349.027344 115.792969 353.363281 121.917969 353.363281 C 123.835938 353.363281 126.113281 352.941406 128.792969 351.824219 L 120.246094 253.984375 C 120.246094 253.984375 113.34375 252.796875 103.988281 248.921875 "/>
</g>
</g>
</svg>
